<svg width="26" height="25" viewBox="0 0 26 25" fill="none" xmlns="http://www.w3.org/2000/svg">
<g clip-path="url(#clip0_412_379)">
<path d="M25.5238 24.0488H0.952367V0.475575C0.952367 0.213324 0.73877 0 0.476183 0C0.213597 0 0 0.213324 0 0.475575V24.5244C0 24.7867 0.213597 25 0.476183 25H25.5238C25.7864 25 26 24.7867 26 24.5244C26 24.2622 25.7864 24.0488 25.5238 24.0488Z" fill="#252525"/>
<path d="M6.87038 10.8345H4.6188C3.98193 10.8345 3.46851 11.3492 3.46655 11.9853V20.6689C3.46655 21.305 3.98193 21.8177 4.6188 21.8197H6.87038C7.50725 21.8197 8.02067 21.305 8.02263 20.6689V11.9853C8.02263 11.3492 7.50725 10.8365 6.87038 10.8345ZM4.6188 11.7876H6.87038C6.97816 11.7876 7.06634 11.8757 7.06634 11.9833V15.8369H4.41892V11.9853C4.41892 11.8776 4.50514 11.7896 4.61292 11.7876C4.61488 11.7876 4.61684 11.7876 4.6188 11.7876ZM6.87038 20.8666H4.6188C4.51102 20.8666 4.42284 20.7785 4.42284 20.6709V16.8154H7.0683V20.6689C7.0683 20.7766 6.98208 20.8646 6.8743 20.8666C6.8743 20.8666 6.87234 20.8666 6.87038 20.8666Z" fill="#252525"/>
<path d="M14.4541 5.47989H12.2025C11.5657 5.47989 11.0523 5.99461 11.0503 6.63066V20.6709C11.0503 21.307 11.5657 21.8197 12.2025 21.8217H14.4541C15.091 21.8217 15.6044 21.307 15.6064 20.6709V6.62871C15.6044 5.99461 15.089 5.48185 14.4541 5.47989ZM12.2025 6.42908H14.4541C14.5619 6.42908 14.6501 6.51715 14.6501 6.62479V12.7212H12.0027V6.62871C12.0007 6.52107 12.0869 6.43104 12.1947 6.42908C12.1967 6.42908 12.2006 6.42908 12.2025 6.42908ZM14.4541 20.8666H12.2025C12.0948 20.8666 12.0066 20.7785 12.0066 20.6709V13.6997H14.654V20.6689C14.654 20.7766 14.5678 20.8647 14.46 20.8666C14.458 20.8666 14.4561 20.8666 14.4541 20.8666Z" fill="#252525"/>
<path d="M22.0376 0H19.7919C19.155 0 18.6416 0.514717 18.6396 1.15078V20.6689C18.6396 21.305 19.155 21.8178 19.7919 21.8197H22.0435C22.6803 21.8197 23.1938 21.305 23.1957 20.6689V1.15078C23.1938 0.514717 22.6764 0 22.0396 0C22.0396 0 22.0396 0 22.0376 0ZM19.7919 0.951151H22.0435C22.1513 0.951151 22.2394 1.03922 22.2394 1.14686V8.59754H19.5959V1.16056C19.5881 1.05292 19.6704 0.958979 19.7782 0.951151C19.7821 0.951151 19.788 0.951151 19.7919 0.951151ZM22.0435 20.8666H19.7919C19.6841 20.8666 19.5959 20.7785 19.5959 20.6709V9.57609H22.2473V20.6689C22.2473 20.7766 22.1611 20.8666 22.0533 20.8666C22.0474 20.8666 22.0415 20.8666 22.0376 20.8666H22.0435Z" fill="#252525"/>
</g>
<defs>
<clipPath id="clip0_412_379">
<rect width="26" height="25" fill="white"/>
</clipPath>
</defs>
</svg>
