<svg width="90" height="20" viewBox="0 0 90 20" fill="none" xmlns="http://www.w3.org/2000/svg">
<g clip-path="url(#clip0_77_152)">
<path d="M25.8003 18.4656H25.7865C25.7297 18.4656 25.6715 18.4795 25.6009 18.4795C25.2851 18.4795 25.0428 18.3077 25.0428 17.6208C25.0428 17.0627 25.0428 16.4034 25.0428 15.6735C25.0428 13.7374 25.0552 11.3289 25.0691 10.1102C25.0635 9.49941 24.8156 8.81386 23.9237 8.81386C23.7949 8.81386 23.5941 8.82771 23.4514 8.82771C23.1648 8.82771 23.0069 9.04238 23.0069 9.25704C23.0069 9.44263 23.1357 9.6296 23.4071 9.6296H23.4362C23.5789 9.61436 23.6079 9.61436 23.6647 9.61436C24.2381 9.61436 24.2381 9.85812 24.2381 10.8317C24.2381 11.6627 24.2242 12.8081 24.2242 13.5379C24.2242 13.7235 24.2104 13.7955 24.1813 13.7955C24.1522 13.7955 24.1093 13.7235 24.0373 13.6238C23.5512 12.9937 22.6911 12.5934 21.7743 12.5934C19.9129 12.5934 18.5238 13.9839 18.5251 15.9879C18.5251 18.064 19.9156 19.4102 21.777 19.4102C22.6371 19.4102 23.5664 19.0238 24.1688 18.2066C24.1979 18.1775 24.2118 18.1637 24.2256 18.1637C24.2686 18.1637 24.2824 18.2205 24.2963 18.3063C24.3974 19.0653 24.9984 19.3229 25.5995 19.3229C25.7851 19.3229 26.1715 19.28 26.1715 18.8783C26.1715 18.6637 26.0427 18.4628 25.7989 18.4628L25.8003 18.4656ZM21.8047 18.6249C20.3727 18.6249 19.37 17.6222 19.37 15.9907C19.37 14.344 20.3574 13.3413 21.8033 13.3413C23.1634 13.3413 24.2242 14.3855 24.2242 15.9893C24.2242 17.5792 23.1509 18.6249 21.8047 18.6249Z" fill="#252525"/>
<path d="M33.4121 18.4684C32.8235 18.262 32.721 17.9089 32.721 16.8355C32.721 16.276 32.7501 15.5115 32.7944 15.0254C32.8096 14.8772 32.8096 14.7456 32.8096 14.6141C32.8096 12.966 31.8817 12.3621 30.512 12.3621C29.2461 12.3621 28.0107 12.995 28.0107 13.5546C28.0107 13.79 28.2019 13.9521 28.4221 13.9521C28.526 13.9521 28.6423 13.9077 28.7309 13.8052C29.0702 13.4368 29.6575 13.0989 30.4524 13.0989C31.6449 13.0989 31.9828 13.7305 31.9828 14.5407C31.9828 14.6141 31.969 14.7027 31.969 14.7761C31.969 14.8786 31.9094 14.9243 31.7335 14.9534C31.1158 15.0559 29.9234 15.2775 29.0121 15.5572C27.9221 15.8965 27.4374 16.6472 27.4374 17.3826C27.4374 18.3978 28.3362 19.4129 29.8223 19.4129C30.6754 19.4129 31.6186 18.9864 32.059 18.2787C32.0742 18.2496 32.1033 18.2343 32.1185 18.2343C32.1476 18.2343 32.1628 18.2634 32.1767 18.3077C32.3097 18.852 32.8401 19.2495 33.2667 19.2495C33.5173 19.2495 33.6641 19.0431 33.6641 18.8382C33.6641 18.6914 33.5894 18.5293 33.4135 18.4712L33.4121 18.4684ZM31.9551 16.0558C31.9551 18.3216 30.5577 18.6304 29.807 18.6318C28.8209 18.6318 28.2323 18.0141 28.2323 17.3964C28.2323 16.366 29.4539 16.071 31.764 15.7026H31.8083C31.9108 15.7026 31.9551 15.747 31.9551 15.8647V16.0558Z" fill="#252525"/>
<path d="M38.445 18.5723H38.3854C38.2386 18.5875 38.1057 18.6013 37.9741 18.6013C36.826 18.6013 36.7969 17.8216 36.7969 16.6735C36.7969 15.5835 36.8412 14.0684 36.8412 13.5089C36.8412 13.333 36.8412 13.3025 37.0766 13.3025H38.3716C38.6513 13.3025 38.7843 13.1114 38.7843 12.905C38.7843 12.7139 38.6513 12.5228 38.3716 12.5228H37.0614C36.8703 12.5228 36.8412 12.5228 36.8398 12.3607C36.8398 12.3607 36.8689 11.1835 36.8689 10.757C36.8689 10.4481 36.6625 10.3013 36.4423 10.3013C36.236 10.3013 36.0144 10.4495 36.0144 10.7293V11.0963C36.0144 11.6115 35.9991 12.3178 35.9991 12.3774C35.9991 12.5089 35.9701 12.5242 35.8385 12.5242H34.9853C34.7056 12.5242 34.5726 12.7153 34.5726 12.9064C34.5726 13.1128 34.7056 13.3039 34.9853 13.3039H35.8537C35.9576 13.3039 36.0005 13.3191 36.0005 13.4659V13.7014C36.0005 14.4229 35.9714 16.2178 35.9728 17.1596C35.9728 17.8078 35.9728 19.4115 37.8564 19.4115C38.445 19.4115 38.7981 19.3368 38.7981 18.9545C38.7981 18.7634 38.6652 18.5723 38.4436 18.5723H38.445Z" fill="#252525"/>
<path d="M46.1855 18.4684C45.5969 18.262 45.4944 17.9089 45.4944 16.8355C45.4944 16.276 45.5235 15.5115 45.5678 15.0254C45.5831 14.8772 45.5831 14.7456 45.5831 14.6141C45.5831 12.966 44.6551 12.3621 43.2868 12.3621C42.021 12.3621 40.7856 12.995 40.7856 13.5546C40.7856 13.79 40.9767 13.9521 41.1969 13.9521C41.3008 13.9521 41.4171 13.9077 41.5058 13.8052C41.8451 13.4368 42.4323 13.0989 43.2273 13.0989C44.4197 13.0989 44.7576 13.7318 44.7576 14.5407C44.7576 14.6141 44.7438 14.7027 44.7438 14.7761C44.7438 14.88 44.6842 14.9243 44.5083 14.9534C43.8906 15.0559 42.6982 15.2775 41.7855 15.5572C40.6955 15.8965 40.2108 16.6472 40.2108 17.3826C40.2108 18.3978 41.1097 19.4129 42.5957 19.4129C43.4488 19.4129 44.3906 18.9864 44.8324 18.2787C44.8476 18.2496 44.8767 18.2343 44.892 18.2343C44.9211 18.2343 44.9363 18.2634 44.9501 18.3077C45.0831 18.852 45.6135 19.2495 46.0401 19.2495C46.2908 19.2495 46.4376 19.0431 46.4376 18.8382C46.4376 18.6914 46.3628 18.5293 46.1869 18.4712L46.1855 18.4684ZM44.7285 16.0558C44.7285 18.3216 43.3311 18.6304 42.5805 18.6318C41.5944 18.6318 41.0058 18.0141 41.0058 17.3964C41.0058 16.366 42.2273 16.071 44.5374 15.7026H44.5817C44.6842 15.7026 44.7285 15.747 44.7285 15.8647V16.0558Z" fill="#252525"/>
<path d="M51.1575 15.6888C50.7019 15.4533 49.9955 15.1597 49.5828 14.9686C49.0967 14.7332 48.8613 14.3509 48.8613 13.9978C48.8613 13.5116 49.2878 13.056 50.0537 13.056C50.1423 13.056 51.4511 13.056 51.4511 14.2332C51.4511 14.4977 51.6575 14.6154 51.8638 14.6154C51.9234 14.6154 52.2322 14.5711 52.2322 14.2623V14.2332C52.217 13.8953 52.217 13.6737 52.217 13.4673C52.217 13.2471 52.217 13.0408 52.2322 12.7319V12.7181C52.2322 12.4826 52.055 12.3649 51.8638 12.3649C51.717 12.3649 51.5702 12.4383 51.5259 12.6003C51.5107 12.6447 51.5259 12.7762 51.4525 12.7762C51.4234 12.7762 51.393 12.7762 51.3639 12.7471C51.1437 12.5713 50.598 12.351 50.0689 12.351C48.7588 12.351 48.0677 13.1903 48.0677 14.0435C48.0677 14.6916 48.4513 15.3384 49.2601 15.6763C50.9678 16.3827 51.6146 16.7358 51.6146 17.5155C51.6146 18.2219 50.893 18.6484 50.1437 18.6484C49.3044 18.6484 48.569 18.1637 48.569 17.6776C48.569 17.5737 48.5981 17.5017 48.5981 17.3978C48.5981 17.1333 48.407 17.0003 48.2006 17.0003C47.9943 17.0003 47.7893 17.1333 47.7893 17.3826V17.4117C47.8045 17.7648 47.8184 17.985 47.8184 18.2066C47.8184 18.4282 47.8045 18.6484 47.7893 18.9725V19.0016C47.7893 19.237 47.9804 19.3548 48.1716 19.3548C48.3474 19.3548 48.5247 19.3104 48.5247 18.9434C48.5247 18.8991 48.54 18.87 48.569 18.87C48.5981 18.87 48.6424 18.8991 48.6729 18.9296C48.9818 19.1941 49.5122 19.4143 50.1451 19.4143C51.8223 19.4143 52.4691 18.3244 52.4691 17.5155C52.4691 16.8535 52.0716 16.1624 51.1589 15.6916L51.1575 15.6888Z" fill="#252525"/>
<path d="M60.5032 18.6152C60.416 18.6152 60.3412 18.6304 60.283 18.6304C60.1362 18.6304 60.0033 18.6013 59.8565 18.4545C57.1918 16.0129 56.8096 15.6597 56.8096 15.5558C56.8096 15.5115 56.8386 15.4672 56.9273 15.409C57.6475 14.9381 58.7803 14.1723 59.6487 13.5836C59.7526 13.5102 59.8994 13.4507 60.0157 13.4507C60.2221 13.4507 60.1044 13.4659 60.3107 13.4659H60.326C60.5905 13.4659 60.7373 13.2748 60.7373 13.0837C60.7373 12.7305 60.4575 12.6862 60.3107 12.7014C59.9285 12.7167 59.5753 12.7167 59.2512 12.7167C58.9272 12.7167 58.5892 12.7167 58.2208 12.7014H58.1917C57.9272 12.7014 57.7943 12.8926 57.7943 13.0837C57.7943 13.4368 58.1474 13.4368 58.4119 13.4368C58.4854 13.4368 58.5158 13.4521 58.5158 13.4812C58.5158 13.4964 58.5006 13.5255 58.4563 13.5546C56.1323 15.1597 56.0728 15.1736 55.9107 15.1736C55.7639 15.1736 55.66 15.1002 55.66 14.9381C55.66 14.9381 55.6891 11.8178 55.6877 9.92044C55.6877 9.59774 55.5853 8.81663 54.3776 8.81801C53.8624 8.81801 53.5978 8.86233 53.5978 9.24458C53.5978 9.45094 53.7446 9.65591 54.0092 9.65591H54.3471C54.7155 9.67114 54.8332 9.8318 54.8332 10.2445C54.8332 11.0395 54.8485 12.0256 54.8485 13.056C54.8485 14.8509 54.8346 16.8369 54.8055 18.3825C54.8055 18.5446 54.7017 18.6332 54.5548 18.6332C54.3194 18.6332 54.2903 18.618 54.113 18.618H54.0978C53.818 18.618 53.6712 18.8243 53.6712 19.0307C53.6712 19.1927 53.7751 19.4282 54.113 19.4129C54.451 19.3977 54.8041 19.3838 55.1725 19.3838C55.5548 19.3838 55.9384 19.3977 56.3207 19.4129H56.3359C56.6157 19.4129 56.7625 19.2218 56.7625 19.0154C56.7625 18.8091 56.6157 18.618 56.3359 18.618H56.3207C56.1143 18.6332 56.1295 18.6332 55.9093 18.6332C55.7334 18.6332 55.6587 18.5307 55.6587 18.3825C55.6434 17.6762 55.6434 17.2053 55.6434 16.8521C55.6434 16.0863 55.6587 15.9547 55.8789 15.9547C56.0257 15.9547 56.1739 15.9699 56.3207 16.1306C56.7763 16.6015 57.984 17.7191 58.7637 18.4836C58.779 18.4989 58.7928 18.5279 58.7928 18.5432C58.7928 18.5584 58.7928 18.647 58.4106 18.647C58.3081 18.647 58.0131 18.647 58.0145 19.0293C58.0145 19.2204 58.1474 19.4115 58.4119 19.4115H58.441C58.7803 19.3963 59.103 19.3825 59.4271 19.3825C59.7512 19.3825 60.1044 19.3963 60.4866 19.4115H60.5018C60.7816 19.4115 60.9146 19.2052 60.9132 18.9988C60.9132 18.7481 60.7359 18.6013 60.5005 18.6166L60.5032 18.6152Z" fill="#252525"/>
<path d="M67.8005 17.528C67.6967 17.528 67.5942 17.5723 67.5055 17.6596C67.0499 18.1748 66.446 18.6304 65.3713 18.6318C63.9587 18.6318 62.8992 17.6471 62.8992 16.0419C62.8992 15.8356 62.9283 15.7774 63.0751 15.7774C63.3991 15.7774 64.6498 15.7927 65.7536 15.7913C66.2979 15.7913 66.7978 15.7913 67.1371 15.776C67.8878 15.7456 68.2105 15.3342 68.2105 14.7899C68.2105 13.9507 67.3269 12.3773 65.3104 12.3773C63.5736 12.3773 62.0294 13.79 62.0294 15.9395C62.0294 18.0141 63.4878 19.4115 65.3561 19.4115C67.2105 19.4115 68.2396 18.2925 68.2396 17.9546C68.2396 17.7191 68.0194 17.528 67.7978 17.528H67.8005ZM65.327 13.1128C66.8283 13.1128 67.3435 14.2166 67.3435 14.6431C67.3435 14.8786 67.2105 15.0406 66.8574 15.0559C66.446 15.0711 65.6206 15.0711 64.8561 15.0711C63.1498 15.0711 63.0169 15.0711 63.0169 14.9243C63.0169 14.38 63.9143 13.1141 65.327 13.1128Z" fill="#252525"/>
<path d="M73.2157 18.5737H73.1561C73.0093 18.5889 72.8764 18.6027 72.7448 18.6027C71.5967 18.6027 71.5676 17.823 71.5676 16.6749C71.5676 15.5863 71.6119 14.0698 71.6119 13.5116C71.6119 13.3357 71.6119 13.3053 71.8473 13.3053H73.1423C73.422 13.3053 73.555 13.1142 73.555 12.9078C73.555 12.7167 73.422 12.5256 73.1423 12.5256H71.8321C71.641 12.5256 71.6119 12.5255 71.6105 12.3649C71.6105 12.3649 71.6396 11.1877 71.6396 10.7611C71.6396 10.4523 71.4332 10.3055 71.213 10.3055C71.0067 10.3055 70.7865 10.4523 70.7865 10.732V11.099C70.7865 11.6142 70.7712 12.3206 70.7712 12.3801C70.7712 12.5117 70.7421 12.5269 70.6106 12.5269H69.7574C69.4777 12.5269 69.3447 12.7194 69.3447 12.9106C69.3447 13.1169 69.4777 13.308 69.7574 13.308H70.6258C70.7297 13.308 70.7726 13.3219 70.7726 13.4687V13.7041C70.7726 14.4257 70.7435 16.2206 70.7435 17.1624C70.7435 17.8092 70.7435 19.4143 72.6271 19.4129C73.2157 19.4129 73.5688 19.3395 73.5688 18.9573C73.5688 18.7662 73.4359 18.575 73.2157 18.575V18.5737Z" fill="#252525"/>
<path d="M80.6474 17.5418C80.5159 17.5418 80.3829 17.6 80.2652 17.7621C79.8539 18.3216 79.1323 18.6166 78.3817 18.6166C76.6892 18.6166 75.8209 17.2192 75.8209 15.8799C75.8209 14.247 76.9385 13.0975 78.3803 13.0975C78.955 13.0975 79.5132 13.2734 79.8816 13.7C80.0575 13.9063 80.0145 14.0822 80.0284 14.3925C80.0436 14.6279 80.25 14.7456 80.4411 14.7456C80.6613 14.7456 80.8676 14.6279 80.8676 14.3772V14.3481C80.8538 14.0102 80.8538 13.7748 80.8538 13.5532C80.8538 13.3177 80.8538 13.0975 80.8676 12.7873V12.7582C80.8676 12.5075 80.6613 12.3912 80.4411 12.3912C80.279 12.3912 80.1032 12.4646 80.0893 12.6419C80.0741 12.7153 80.0602 12.8039 80.0159 12.8039C79.9868 12.8039 79.9716 12.7887 79.9425 12.7748C79.5159 12.5242 78.9121 12.3344 78.2792 12.3344C76.4247 12.3344 74.9691 13.88 74.9691 15.9408C74.9691 17.6928 76.1616 19.4129 78.4287 19.4129C80.0173 19.4129 81.1211 18.4268 81.1211 18.0003C81.1211 17.7496 80.9009 17.5446 80.6502 17.5446L80.6474 17.5418Z" fill="#252525"/>
<path d="M89.5499 18.6152H89.5347C89.3283 18.6152 89.3436 18.6304 89.122 18.6304C88.9461 18.6304 88.8713 18.5266 88.8713 18.3659C88.8713 17.2039 88.8561 15.5115 88.8408 14.8924C88.7813 13.2886 87.6041 12.538 86.3825 12.538C85.5585 12.538 84.7206 12.8773 84.2054 13.5393C84.1763 13.5684 84.1611 13.5836 84.1458 13.5836C84.1306 13.5836 84.1167 13.5546 84.1167 13.5102C84.1167 13.3039 84.1306 11.9799 84.1306 10.7874C84.1306 10.4924 84.1306 10.2127 84.1306 9.94814C84.1306 9.34568 83.8217 8.90388 83.1306 8.83048C83.0129 8.81663 82.88 8.80139 82.7622 8.80139C82.1293 8.80139 82.0116 8.99252 82.0116 9.24319C82.0116 9.44955 82.1584 9.65452 82.4229 9.65452H82.4382C82.5656 9.64437 82.6736 9.63929 82.7622 9.63929C83.1445 9.65452 83.2622 9.8595 83.2622 10.2417C83.2622 11.124 83.2774 12.3164 83.2774 13.567C83.2774 15.3328 83.2636 17.1873 83.2484 18.3797C83.2484 18.5418 83.1597 18.6304 83.0129 18.6304C82.7775 18.6304 82.7332 18.6152 82.542 18.6152H82.5268C82.247 18.6152 82.1002 18.8215 82.1002 19.0279C82.1002 19.1899 82.2041 19.424 82.542 19.4102C82.8814 19.3949 83.2484 19.3811 83.6168 19.3797C83.9852 19.3797 84.3813 19.3949 84.7649 19.4088H84.7801C85.0599 19.4088 85.2067 19.2024 85.2067 19.0113C85.2067 18.7758 85.0156 18.6 84.7649 18.6138C84.5585 18.629 84.5738 18.629 84.3536 18.629C84.1763 18.629 84.1029 18.5266 84.1029 18.3784C84.1029 17.6873 84.0877 17.0391 84.0877 16.4948C84.0877 15.9658 84.1029 15.524 84.1029 15.2442C84.1458 14.0822 85.2649 13.3163 86.2953 13.3163C87.1346 13.3163 87.9143 13.8316 87.9877 15.0517C88.0029 15.3315 88.0168 16.0226 88.0168 16.7884C88.0168 17.3327 88.0029 17.8922 88.0029 18.3784C88.0029 18.5266 87.9143 18.629 87.7675 18.629C87.532 18.629 87.5168 18.6152 87.3257 18.6152H87.3104C87.0307 18.6152 86.8839 18.8216 86.8839 19.0265C86.8839 19.1886 86.9864 19.424 87.3257 19.4088C87.665 19.3935 88.0168 19.3783 88.3852 19.3783C88.7536 19.3783 89.151 19.3935 89.5333 19.4074H89.5485C89.8283 19.4074 89.9751 19.2163 89.9751 19.0099C89.9751 18.8035 89.8283 18.6124 89.5485 18.6124L89.5499 18.6152Z" fill="#252525"/>
<path d="M15.3869 16.3217L13.7028 15.0656V7.57571C13.7028 6.83061 13.0961 6.22261 12.3497 6.22261H1.3531C0.607996 6.22261 0 6.82922 0 7.57571V15.5517C0 16.2968 0.606611 16.9048 1.3531 16.9048H6.26L3.7657 18.7634C3.60643 18.8825 3.57319 19.1082 3.69229 19.2675C3.8114 19.4268 4.03715 19.46 4.19642 19.3409L6.86523 17.3521L9.53404 19.3409C9.59775 19.388 9.67392 19.4129 9.74871 19.4129C9.8595 19.4129 9.96615 19.3617 10.0382 19.2689C10.1573 19.1096 10.124 18.8839 9.96476 18.7648L7.47045 16.9062H12.3497C12.9909 16.9062 13.5283 16.4574 13.6667 15.8578L14.9949 16.848C15.0531 16.8909 15.1223 16.9117 15.1902 16.9117C15.2899 16.9117 15.3882 16.866 15.4533 16.7801C15.5614 16.6361 15.5309 16.4297 15.3869 16.3217ZM13.0491 14.5781L9.64207 12.0367C9.49803 11.9286 9.29167 11.9591 9.18364 12.1031C9.07562 12.2472 9.10609 12.4535 9.25012 12.5616L13.0491 15.3938V15.5517C13.0491 15.9367 12.7361 16.2497 12.6017 16.2497H1.60378C0.968084 16.2497 0.655084 15.9367 0.655084 15.5517V7.57571C0.655084 7.19069 0.968084 6.87769 1.3531 6.87769H12.351C12.7361 6.87769 13.0491 7.19069 13.0491 7.57571V14.5781Z" fill="#252525"/>
<path d="M48.6937 4.20335H49.1909C49.5496 4.2075 49.9069 4.17288 50.2587 4.10086C50.5398 4.04408 50.8085 3.93605 51.0495 3.78093C51.26 3.64105 51.4304 3.44855 51.5426 3.22141C51.663 2.96243 51.7212 2.67851 51.7129 2.39321C51.7531 1.86 51.5121 1.3448 51.0758 1.03318C50.5218 0.710487 49.8861 0.558142 49.2463 0.598305C49.0095 0.598305 48.7505 0.608 48.468 0.626004C48.209 0.641239 47.95 0.675863 47.6965 0.732646V6.13674H48.6923V4.20335H48.6937ZM48.6937 1.48883C48.8571 1.4736 49.0649 1.46529 49.3155 1.46529C49.4942 1.46529 49.6729 1.47914 49.8488 1.50822C49.9997 1.53177 50.1451 1.58162 50.2795 1.65364C50.3986 1.72012 50.4969 1.81845 50.5634 1.93756C50.6368 2.07605 50.6714 2.23117 50.6659 2.38905C50.6991 2.69651 50.5495 2.99428 50.2822 3.14939C49.9346 3.30312 49.5565 3.37237 49.177 3.35298H48.6937V1.49022V1.48883Z" fill="#252525"/>
<path d="M54.9925 6.08965C55.2307 5.98855 55.4453 5.83897 55.6212 5.64785C55.8013 5.44703 55.9384 5.21297 56.0243 4.95814C56.1226 4.67007 56.1697 4.36815 56.1669 4.06484C56.1711 3.76292 56.1212 3.461 56.0201 3.1757C55.9328 2.92364 55.7957 2.69097 55.6185 2.49153C55.4426 2.3018 55.2293 2.15222 54.9897 2.0525C54.7349 1.94863 54.462 1.896 54.1878 1.89877C53.9136 1.896 53.6421 1.94725 53.3901 2.0525C53.1519 2.15222 52.9372 2.3018 52.7613 2.49153C52.5785 2.68958 52.4372 2.92226 52.3472 3.1757C52.2475 3.461 52.1976 3.76154 52.2018 4.06484C52.1976 4.36953 52.2475 4.67145 52.3472 4.95814C52.4358 5.21297 52.5743 5.44703 52.7544 5.64785C52.9275 5.83759 53.1394 5.98855 53.3762 6.08965C53.6311 6.19768 53.9053 6.25169 54.1823 6.24754C54.4606 6.25031 54.7362 6.19768 54.9925 6.08965ZM53.4496 5.05232C53.2585 4.76009 53.1657 4.41385 53.1851 4.06484C53.1671 3.71999 53.2585 3.37791 53.4496 3.08984C53.62 2.85301 53.8983 2.71728 54.1892 2.72975C54.48 2.71728 54.7584 2.85301 54.9274 3.08984C55.1185 3.37791 55.2113 3.71999 55.1919 4.06484C55.2099 4.41385 55.1171 4.76009 54.926 5.05232H54.9274C54.7584 5.29053 54.48 5.42764 54.1892 5.41656C53.897 5.42903 53.6186 5.29192 53.4496 5.05232Z" fill="#252525"/>
<path d="M62.5086 1.99988H61.5212C61.4755 2.22147 61.4201 2.45968 61.355 2.7159C61.2899 2.97212 61.222 3.23249 61.1514 3.4984C61.0808 3.76431 61.0074 4.02468 60.9326 4.27675C60.8592 4.52881 60.7871 4.7601 60.7179 4.97199C60.639 4.72963 60.5614 4.47895 60.4852 4.22135C60.4104 3.96236 60.3384 3.70476 60.2719 3.44716C60.2055 3.18956 60.1431 2.93749 60.0864 2.69236C60.0282 2.44722 59.9756 2.21732 59.9285 2.00265H59.2028C59.1571 2.2187 59.103 2.4486 59.0407 2.69236C58.9784 2.93611 58.9133 3.18817 58.8468 3.44716C58.7776 3.70476 58.7056 3.96375 58.6294 4.22135C58.5532 4.47895 58.4757 4.72963 58.3953 4.97199C58.3219 4.7601 58.2471 4.53019 58.1724 4.27675C58.0976 4.0233 58.0269 3.76431 57.9577 3.4984C57.8884 3.23249 57.8233 2.97073 57.7596 2.7159C57.6959 2.46107 57.6405 2.22147 57.5934 1.99988H56.5797C56.6904 2.40567 56.804 2.80315 56.9203 3.19371C57.0367 3.58427 57.153 3.95544 57.2707 4.3086C57.3871 4.66176 57.502 4.99415 57.6156 5.30438C57.7292 5.616 57.84 5.8916 57.948 6.13259H58.7333C58.8718 5.74341 59.0089 5.32793 59.1474 4.89028C59.2859 4.45125 59.416 3.99975 59.5379 3.53441C59.6584 3.99837 59.7914 4.44987 59.9368 4.89028C60.0822 5.32931 60.2221 5.74341 60.3592 6.13259H61.1348C61.2456 5.89022 61.3591 5.61461 61.4755 5.30438C61.5918 4.99415 61.7068 4.66176 61.8203 4.3086C61.9367 3.95544 62.0516 3.58427 62.1652 3.19371C62.2787 2.80315 62.3923 2.40567 62.5059 1.99988H62.5086Z" fill="#252525"/>
<path d="M63.5238 5.62846C63.708 5.82789 63.9351 5.98162 64.1885 6.07995C64.4918 6.19213 64.8131 6.24615 65.1358 6.23784C65.2757 6.23784 65.4156 6.22953 65.5555 6.21429C65.694 6.19906 65.82 6.17967 65.9391 6.15474C66.0458 6.13397 66.151 6.10765 66.2549 6.0758C66.3297 6.05364 66.4017 6.02594 66.4723 5.9927L66.3463 5.2102C66.1995 5.26837 66.0471 5.31407 65.892 5.34454C65.6829 5.38886 65.4696 5.40963 65.2563 5.40825C64.9309 5.43041 64.6096 5.33346 64.3506 5.13541C64.1345 4.93598 64.0071 4.6576 63.9988 4.36399H66.7258C66.7313 4.31136 66.7341 4.2532 66.7382 4.18672C66.7424 4.12024 66.741 4.06207 66.741 4.00806C66.7839 3.44023 66.6136 2.87655 66.2632 2.42782C65.9197 2.06358 65.4322 1.86969 64.9309 1.89738C64.6871 1.89738 64.4461 1.94447 64.2204 2.03588C63.9877 2.12867 63.7786 2.26994 63.6041 2.44998C63.4157 2.64665 63.2689 2.87932 63.1734 3.13415C63.0598 3.44023 63.0044 3.76431 63.0113 4.08977C63.0086 4.38061 63.0501 4.67007 63.1374 4.94844C63.2163 5.20051 63.3479 5.43179 63.5251 5.62846H63.5238ZM64.0916 3.3045C64.1317 3.19232 64.1913 3.08845 64.2689 2.99704C64.3464 2.90702 64.442 2.83223 64.55 2.7796C64.6705 2.72143 64.8035 2.69373 64.9378 2.6965C65.0638 2.69235 65.1899 2.71866 65.3048 2.77129C65.4059 2.81977 65.4945 2.8904 65.5652 2.97904C65.6386 3.07044 65.694 3.1757 65.7272 3.28788C65.7646 3.40976 65.7826 3.53579 65.7826 3.6632H64.0043C64.0196 3.54133 64.0487 3.42084 64.0902 3.3045H64.0916Z" fill="#252525"/>
<path d="M70.1051 2.85577L70.2713 2.04973C70.2242 2.03449 70.1605 2.01787 70.0815 1.99849C70.0026 1.98048 69.9223 1.97079 69.8378 1.95555C69.7533 1.94309 69.6688 1.93201 69.5857 1.9237C69.5026 1.91539 69.4278 1.91262 69.3641 1.91262C69.0553 1.90985 68.7464 1.94032 68.4431 2.00403C68.2091 2.0525 67.9778 2.11759 67.7534 2.19792V6.13258H68.709V2.81561C68.7907 2.79207 68.8738 2.77406 68.9569 2.76021C69.0677 2.73944 69.1799 2.72974 69.2935 2.72836C69.4555 2.72697 69.6176 2.74082 69.7768 2.77129C69.8876 2.79345 69.997 2.82115 70.1051 2.85439V2.85577Z" fill="#252525"/>
<path d="M72.6271 1.89739C72.3833 1.89739 72.1424 1.94448 71.9166 2.03588C71.6839 2.12868 71.4734 2.26994 71.3003 2.44999C71.1119 2.64665 70.9651 2.87932 70.8696 3.13415C70.756 3.44023 70.702 3.76431 70.7075 4.08977C70.7048 4.38061 70.7463 4.67007 70.8336 4.94845C70.9125 5.19912 71.0441 5.42903 71.22 5.62569C71.4042 5.82512 71.6313 5.97885 71.8847 6.07719C72.1881 6.19075 72.5094 6.24615 72.8334 6.23923C72.9733 6.23923 73.1132 6.23092 73.2531 6.21568C73.3916 6.20045 73.5176 6.18106 73.6367 6.15613C73.7434 6.13535 73.8486 6.10904 73.9525 6.07719C74.0273 6.05503 74.0993 6.02733 74.1699 5.99409L74.0439 5.21159C73.8971 5.26976 73.7447 5.31546 73.5896 5.34593C73.3805 5.39025 73.1672 5.41102 72.9526 5.40964C72.6271 5.4318 72.3058 5.33485 72.0468 5.1368C71.8307 4.93737 71.7033 4.65899 71.695 4.36538H74.422C74.4261 4.31275 74.4303 4.25458 74.4331 4.18811C74.4358 4.12163 74.4372 4.06346 74.4372 4.00945C74.4802 3.44161 74.3098 2.87794 73.9594 2.42921C73.6159 2.06497 73.1284 1.87107 72.6271 1.89877V1.89739ZM71.7019 3.66182C71.7172 3.53995 71.7463 3.42084 71.7892 3.3045C71.8293 3.19094 71.8889 3.08707 71.9665 2.99566C72.044 2.90564 72.1396 2.83085 72.2476 2.77822C72.3681 2.72005 72.5011 2.69235 72.6354 2.69512C72.7628 2.69235 72.8875 2.71728 73.0038 2.76991C73.1049 2.81838 73.1935 2.88902 73.2642 2.97765C73.3376 3.06906 73.393 3.17432 73.4262 3.2865C73.4636 3.40838 73.4816 3.53441 73.4816 3.66182H71.7033H71.7019Z" fill="#252525"/>
<path d="M75.7848 5.66171C75.9704 5.85145 76.1961 5.99825 76.4454 6.09243C76.7266 6.19492 77.0243 6.24339 77.3235 6.23785C77.6268 6.23923 77.9287 6.21708 78.2279 6.1686C78.4688 6.13121 78.7084 6.07858 78.9425 6.01072V0.0027771L77.9869 0.160662V2.1453C77.8608 2.0816 77.7279 2.02758 77.5922 1.98742C77.4204 1.93756 77.2418 1.9154 77.0631 1.91817C76.7944 1.91263 76.5271 1.96526 76.2806 2.07329C76.0576 2.173 75.8596 2.32396 75.7031 2.51232C75.5383 2.71452 75.4164 2.94581 75.343 3.19649C75.2585 3.48456 75.217 3.78509 75.2211 4.08563C75.217 4.3917 75.2654 4.69501 75.3665 4.98308C75.4565 5.23653 75.5992 5.4692 75.7862 5.66309L75.7848 5.66171ZM76.4413 3.09123C76.6158 2.84748 76.9052 2.71314 77.2044 2.73668C77.3567 2.73668 77.5077 2.76022 77.6503 2.81147C77.768 2.85163 77.8816 2.90564 77.9869 2.97351V5.34455C77.9176 5.35979 77.8304 5.37502 77.7223 5.38749C77.5922 5.40134 77.462 5.40826 77.3318 5.40688C77.0146 5.42211 76.7086 5.28915 76.5036 5.04817C76.2889 4.76426 76.1823 4.41248 76.203 4.05654C76.185 3.71861 76.2681 3.38207 76.4426 3.09123H76.4413Z" fill="#252525"/>
<path d="M83.6209 6.23646C83.92 6.242 84.2178 6.19075 84.4989 6.08688C84.7482 5.99271 84.974 5.84451 85.1582 5.65201C85.3438 5.45534 85.4864 5.22267 85.5778 4.96784C85.6789 4.67977 85.7274 4.37508 85.7233 4.07039C85.726 3.77262 85.6859 3.47485 85.6014 3.18817C85.5294 2.94026 85.4102 2.70759 85.2496 2.504C85.0959 2.31426 84.8992 2.1633 84.6762 2.06497C84.4311 1.95833 84.1652 1.9057 83.8979 1.90985C83.7178 1.90708 83.5378 1.93063 83.3647 1.9791C83.2248 2.01788 83.0877 2.07189 82.9575 2.13699V0L82.0005 0.157885V6.00655C82.2345 6.07442 82.4741 6.12705 82.7151 6.16444C83.0143 6.21291 83.3162 6.23646 83.6195 6.23646H83.6209ZM83.2926 2.80592C83.4367 2.75883 83.5876 2.73529 83.74 2.73667C84.0378 2.71451 84.3258 2.84885 84.4989 3.09261C84.6748 3.38345 84.7579 3.71999 84.7399 4.05931C84.7593 4.41247 84.6541 4.76148 84.4422 5.04401C84.2372 5.28638 83.9311 5.41795 83.614 5.40271C83.4838 5.40271 83.3522 5.39717 83.222 5.38332C83.1334 5.37363 83.0447 5.3584 82.9575 5.34039V2.96519C83.06 2.89733 83.1735 2.8447 83.2913 2.80731L83.2926 2.80592Z" fill="#252525"/>
<path d="M86.7453 6.80567C86.5514 6.80428 86.3603 6.76689 86.1817 6.69487L86.0085 7.46075C86.1138 7.50784 86.2246 7.54247 86.3368 7.56324C86.4808 7.59509 86.6276 7.61033 86.7758 7.61033C86.9739 7.6131 87.1705 7.58817 87.3616 7.53554C87.5292 7.48568 87.6857 7.40397 87.8214 7.29456C87.9669 7.17545 88.0915 7.0328 88.194 6.87492C88.3186 6.68102 88.4267 6.47743 88.5181 6.26554C89.1192 4.88196 89.615 3.45546 90.0014 1.9971H89.0125C88.892 2.49292 88.7577 3.00535 88.6109 3.5344C88.4641 4.06346 88.3076 4.56342 88.14 5.03292C88.0403 4.80579 87.9392 4.56065 87.8381 4.29751C87.737 4.03437 87.6414 3.76846 87.5528 3.50393C87.4641 3.23802 87.3796 2.97488 87.3035 2.71728C87.2259 2.45968 87.1608 2.21869 87.1096 1.99849H86.0903C86.2966 2.73944 86.5445 3.46654 86.8312 4.17979C87.1068 4.86535 87.3977 5.49689 87.701 6.07718C87.622 6.28769 87.496 6.47605 87.3312 6.62978C87.1636 6.75581 86.9572 6.81813 86.7481 6.80567H86.7453Z" fill="#252525"/>
</g>
<defs>
<clipPath id="clip0_77_152">
<rect width="90" height="19.4115" fill="white"/>
</clipPath>
</defs>
</svg>
